/vscmnt/brussel_pixiu_data/_data_brussel/112/vsc11236/PredSimResults/SUBJ11mtu3D/worker2.mot
version=1
nRows=5
nColumns=50
inDegrees=yes
endheader
                time	         pelvis_tilt	         pelvis_list	     pelvis_rotation	           pelvis_tx	           pelvis_ty	           pelvis_tz	       hip_flexion_r	     hip_adduction_r	      hip_rotation_r	        knee_angle_r	       ankle_angle_r	         mtp_angle_r	       hip_flexion_l	     hip_adduction_l	      hip_rotation_l	        knee_angle_l	       ankle_angle_l	         mtp_angle_l	    lumbar_extension	      lumbar_bending	     lumbar_rotation	 ercspn_r/activation	 intobl_r/activation	 extobl_r/activation	    abd_r/activation	    add_r/activation	hamstrings_r/activation	bifemsh_r/activation	glut_max_r/activation	iliopsoas_r/activation	rect_fem_r/activation	  vasti_r/activation	gastroc_r/activation	 soleus_r/activation	tib_ant_r/activation	 ercspn_l/activation	 intobl_l/activation	 extobl_l/activation	    abd_l/activation	    add_l/activation	hamstrings_l/activation	bifemsh_l/activation	glut_max_l/activation	iliopsoas_l/activation	rect_fem_l/activation	  vasti_l/activation	gastroc_l/activation	 soleus_l/activation	tib_ant_l/activation	
          1.88794947	        -19.96266950	         11.08380844	        -12.16161028	          2.07674441	          0.96168938	          0.01320907	         10.01894070	        -18.24822128	         -4.22145163	        -16.11816005	        -23.72086147	         60.14568287	         49.91534271	         -7.20552645	         -5.30710285	        -20.60713269	        -28.76790025	          0.50233598	          0.40124131	         -7.26472023	         -1.52584750	          0.11453919	          0.01230829	          0.01002346	          0.10225509	          0.09444521	          0.07674888	          0.42942677	          0.06930363	          0.22197759	          0.09418779	          0.05553926	          0.25563113	          0.13646948	          0.10788225	          0.17602241	          0.15968788	          0.02580750	          0.01661336	          0.13794724	          0.04058784	          0.36339842	          0.11020154	          0.29150041	          0.06705150	          0.01382886	          0.25421069	          0.02198792	          0.03992059	
          1.90053580	        -19.98404290	         10.75379867	        -12.12632749	          2.09544143	          0.95757367	          0.00963564	          8.80916530	        -18.38238648	         -5.14546091	        -16.05116188	        -24.19707476	         60.16021812	         50.77497700	         -7.25627924	         -7.42541636	        -24.43996767	        -26.37630061	          2.37172973	          0.88741363	         -7.15943882	         -1.33860511	          0.15739006	          0.01017424	          0.09782768	          0.08452740	          0.21041516	          0.06883014	          0.35497710	          0.05728658	          0.38752632	          0.07785820	          0.06078687	          0.25631089	          0.16077501	          0.08966524	          0.14608656	          0.23344574	          0.02133259	          0.01373268	          0.19201644	          0.04981241	          0.30039368	          0.10076708	          0.24095501	          0.05542503	          0.01143209	          0.25897641	          0.04850749	          0.03299973	
          1.91312213	        -19.99526420	         10.45656574	        -11.97272236	          2.11401712	          0.95357628	          0.00612369	          7.90654268	        -18.56711836	         -6.10742390	        -16.53754019	        -24.71732295	         60.15604146	         51.44774509	         -7.46470784	         -9.25991069	        -28.28680541	        -24.46879247	          6.92025321	          1.32353601	         -7.17759627	         -1.19497154	          0.17589892	          0.01000482	          0.11163389	          0.11226764	          0.28808506	          0.06176895	          0.29342696	          0.04735328	          0.50368866	          0.06437666	          0.12815213	          0.25132721	          0.19832094	          0.07416696	          0.15127311	          0.25935889	          0.01763363	          0.01135153	          0.22805863	          0.06118409	          0.25155608	          0.11643939	          0.19917396	          0.04581454	          0.01000016	          0.21563612	          0.04009693	          0.02736447	
          1.92570846	        -19.99999855	         10.12899502	        -11.72749319	          2.13231398	          0.94990571	          0.00256748	          7.35697437	        -18.75049777	         -7.18402609	        -17.62193814	        -25.30830550	         60.01860984	         51.80752811	         -7.61945236	        -10.65149114	        -31.42101071	        -23.36118436	         12.41251937	          1.67481122	         -7.23104240	         -1.04597182	          0.22552083	          0.01000011	          0.14196488	          0.17033606	          0.33814485	          0.05430470	          0.24254886	          0.03914239	          0.58493538	          0.08022154	          0.11886289	          0.23084132	          0.21431722	          0.06137723	          0.16692909	          0.21480898	          0.01457607	          0.01000019	          0.24167146	          0.07193519	          0.26232108	          0.22929902	          0.16463765	          0.03787051	          0.01000055	          0.19833315	          0.03314784	          0.03881214	
          1.93829478	        -19.99397620	          9.75824128	        -11.40006958	          2.15034553	          0.94663223	         -0.00101259	          7.09905384	        -18.93449687	         -8.39976919	        -19.23579782	        -25.85071886	         59.46265501	         51.88071316	         -7.66769381	        -11.44575312	        -33.95723619	        -22.40213874	         17.97170418	          1.94936837	         -7.29743502	         -0.88665490	          0.24757618	          0.01001036	          0.18643522	          0.20705753	          0.36575036	          0.04761070	          0.20049314	          0.03235598	          0.63881500	          0.09199770	          0.09825848	          0.20490088	          0.21233444	          0.05200072	          0.18160928	          0.17758211	          0.01204887	          0.01000014	          0.24028343	          0.08026727	          0.26581337	          0.30777410	          0.13608987	          0.03130397	          0.01000009	          0.17139576	          0.02769802	          0.03281612	
